<?xml version="1.0" encoding="UTF-8"?>
<svg id="Livello_1" xmlns="http://www.w3.org/2000/svg" version="1.1" viewBox="0 0 996 163.62">
  <!-- Generator: Adobe Illustrator 30.2.1, SVG Export Plug-In . SVG Version: 2.1.1 Build 1)  -->
  <defs>
    <style>
      .st0 {
        fill: #f2b408;
      }
    </style>
  </defs>
  <g>
    <g>
      <path d="M227.88,81.81c0-26.42,19.41-45.82,46.89-45.82,23.05,0,40.43,13.61,45.41,33.69h-18.19c-4.18-10.64-14.15-17.65-27.22-17.65-17.52,0-29.38,12.53-29.38,29.79s11.86,29.91,29.38,29.91c13.08,0,23.05-7.15,27.22-17.79h18.19c-4.99,20.08-22.38,33.69-45.41,33.69-27.49,0-46.89-19.41-46.89-45.82h0Z"/>
      <path d="M331.78,99.87h15.5c.14,7.55,5.52,12.8,14.82,12.8s14.56-5.39,14.56-12.8c0-8.22-4.99-13.34-15.9-13.34h-9.97v-14.42h9.97c9.16,0,12.94-3.9,12.94-10.64,0-5.93-4.04-10.52-11.59-10.52s-11.31,4.31-11.72,10.64h-15.63c.41-16.71,11.45-25.61,27.62-25.61s27.49,9.57,27.49,24.25c0,9.03-3.9,15.36-11.19,18.87v.27c9.16,3.51,14.28,10.64,14.28,21.43,0,16.45-12.8,26.82-30.59,26.82s-30.59-10.11-30.59-27.76h0Z"/>
      <path d="M446.73,74.26c0-23.58,13.48-38.28,38.4-38.28s38.67,14.69,38.67,38.28v51.62h-17.24v-26.42h-42.99v26.42h-16.84v-51.62ZM506.56,83.83v-9.57c0-14.15-7.01-22.24-21.56-22.24s-21.43,8.08-21.43,22.24v9.57s42.99,0,42.99,0Z"/>
      <path d="M730.13,72.78c0-22.64,13.34-36.79,37.47-36.79s37.47,14.15,37.47,36.79v53.09h-17.24v-53.09c0-13.08-6.74-20.75-20.21-20.75s-20.21,7.68-20.21,20.75v53.09h-17.24v-53.09h-.02Z"/>
      <path d="M820.01,81.81c0-26.42,19.41-45.82,46.89-45.82,23.05,0,40.43,13.61,45.41,33.69h-18.19c-4.18-10.64-14.15-17.65-27.22-17.65-17.52,0-29.38,12.53-29.38,29.79s11.86,29.91,29.38,29.91c13.08,0,23.05-7.15,27.22-17.79h18.19c-4.99,20.08-22.38,33.69-45.41,33.69-27.49,0-46.89-19.41-46.89-45.82h0Z"/>
      <path d="M945.47,88.68l-33.69-50.93h20.35l21.83,35.58,22.1-35.58h19.94l-33.28,50.53v37.59h-17.24v-37.19h0Z"/>
    </g>
    <path d="M593.33,78.04v15.37h20.5c-4.31,12-14.42,18.32-28.17,18.32-17.52,0-29.38-12.67-29.38-29.91s11.86-29.79,29.38-29.79c11.31,0,20.49,5.26,25.2,13.75h19.13c-6.2-17.93-22.77-29.79-44.33-29.79-27.49,0-46.89,19.41-46.89,45.82s19.41,45.82,46.89,45.82c25.87,0,44.74-17.24,46.77-41.37v-8.22h-39.1Z"/>
    <polygon points="713.54 37.74 648.59 37.74 648.59 125.88 713.54 125.88 713.54 109.98 665.84 109.98 665.84 88.82 696.38 88.82 696.38 73.45 665.84 73.45 665.84 53.78 713.54 53.78 713.54 37.74"/>
  </g>
  <g>
    <path class="st0" d="M33.87,15.51l7.04,7.17C69.16,3.09,108.23,6.09,133.12,31.45c24.89,25.36,27.16,64.49,7.05,92.36l7.04,7.17c23.97-31.8,21.73-77.2-7-106.48C111.46-4.78,66.11-7.87,33.87,15.51Z"/>
    <path class="st0" d="M47.97,29.87l7.11,7.25c20.16-12.08,46.69-9.29,63.88,8.22,17.19,17.52,19.48,44.09,7.02,64.03l7.11,7.25c16.27-23.93,13.99-56.78-7.06-78.22-21.04-21.44-53.85-24.35-78.07-8.52h.01Z"/>
    <path class="st0" d="M62.28,44.45l7.37,7.51c11.75-4.78,25.73-2.34,35.17,7.28,9.44,9.61,11.62,23.64,6.62,35.3l7.37,7.51c8.69-15.87,6.42-36.17-6.9-49.75s-33.58-16.22-49.61-7.84h-.02Z"/>
    <path d="M93.97,111.66c-11.75,4.78-25.73,2.34-35.17-7.28-9.44-9.61-11.62-23.64-6.62-35.3L16.42,32.64c-23.97,31.8-21.73,77.2,7,106.48,28.74,29.28,74.09,32.37,106.33,9l-35.78-36.45h0Z"/>
  </g>
</svg>